<svg width="49" height="49" viewBox="0 0 49 49" fill="none" xmlns="http://www.w3.org/2000/svg">
<path d="M48.8881 35.8735C48.8881 36.1362 48.88 36.7062 48.8643 37.1465C48.8256 38.2237 48.7402 39.6138 48.6111 40.2472C48.417 41.199 48.124 42.0973 47.742 42.8451C47.29 43.7296 46.7134 44.522 46.0283 45.2058C45.3447 45.8883 44.5532 46.4626 43.6699 46.9127C42.9183 47.2958 42.0143 47.5889 41.057 47.7822C40.43 47.9088 39.0503 47.9926 37.9799 48.0306C37.5392 48.0464 36.9691 48.0543 36.7073 48.0543L13.0727 48.0505C12.8099 48.0505 12.24 48.0424 11.7997 48.0266C10.7224 47.988 9.33238 47.9026 8.69899 47.7735C7.74718 47.5794 6.84877 47.2864 6.10105 46.9044C5.21646 46.4524 4.42416 45.8758 3.74033 45.1907C3.05786 44.5071 2.48357 43.7156 2.03345 42.8324C1.65031 42.0807 1.35717 41.1767 1.16391 40.2195C1.03735 39.5924 0.953592 38.2127 0.915484 37.1423C0.899828 36.7017 0.891907 36.1316 0.891907 35.8698L0.895657 12.2351C0.895657 11.9723 0.903672 11.4024 0.919468 10.9621C0.958138 9.88482 1.04349 8.49476 1.17263 7.86141C1.36673 6.90961 1.65969 6.01119 2.04175 5.26343C2.49375 4.37889 3.07033 3.58655 3.75538 2.90272C4.43898 2.22029 5.23057 1.64596 6.1138 1.19579C6.8655 0.812743 7.76954 0.519599 8.72673 0.326342C9.35376 0.199738 10.7335 0.115976 11.8039 0.0779148C12.2446 0.0622123 12.8147 0.0542908 13.0764 0.0542908L36.7111 0.0580875C36.9739 0.0580875 37.5438 0.0661028 37.9841 0.081899C39.0614 0.120569 40.4514 0.205925 41.0848 0.33506C42.0366 0.529161 42.935 0.822117 43.6828 1.20418C44.5673 1.65618 45.3596 2.23276 46.0434 2.91781C46.7259 3.6014 47.3002 4.39295 47.7503 5.27622C48.1335 6.02793 48.4266 6.93192 48.6199 7.88911C48.7464 8.51618 48.8301 9.89584 48.8683 10.9663C48.884 11.407 48.8919 11.977 48.8919 12.2389L48.8881 35.8735V35.8735Z" fill="url(#paint0_linear_11_13)"/>
<path d="M38.6309 10.4361C35.2028 7.03347 30.6439 5.15865 25.7866 5.15674C15.7786 5.15674 7.63324 13.2317 7.62923 23.1572C7.62795 26.33 8.46403 29.4269 10.0529 32.1568L7.47699 41.4853L17.1024 38.982C19.7545 40.4161 22.7404 41.1719 25.7794 41.1731H25.7868C35.7938 41.1731 43.9399 33.0972 43.944 23.1716C43.9459 18.3616 42.059 13.8387 38.6309 10.4361ZM25.7868 38.1328H25.7806C23.0726 38.1318 20.4166 37.4105 18.0995 36.0473L17.5483 35.723L11.8365 37.2086L13.3611 31.6873L13.0022 31.1212C11.4915 28.7389 10.6936 25.9855 10.6948 23.1584C10.6981 14.9088 17.4682 8.1971 25.7927 8.1971C29.8236 8.19862 33.6128 9.75705 36.4621 12.5851C39.3114 15.4132 40.8797 19.1725 40.8782 23.1704C40.875 31.4207 34.1049 38.1328 25.7868 38.1328ZM34.0649 26.9269C33.6111 26.7018 31.3806 25.6136 30.9647 25.4634C30.5489 25.3133 30.2465 25.2383 29.9439 25.6886C29.6415 26.1389 28.7721 27.1521 28.5074 27.4522C28.2427 27.7524 27.9781 27.79 27.5244 27.5648C27.0707 27.3397 25.6089 26.8647 23.876 25.3323C22.5273 24.1398 21.6167 22.6667 21.3521 22.2163C21.0875 21.766 21.324 21.5226 21.5511 21.2983C21.7551 21.0968 22.0047 20.773 22.2316 20.5103C22.4584 20.2477 22.5341 20.06 22.6853 19.7598C22.8365 19.4596 22.7609 19.1969 22.6474 18.9718C22.5341 18.7467 21.6267 16.5327 21.2486 15.6321C20.8804 14.755 20.5063 14.8737 20.2278 14.8599C19.9634 14.8469 19.6607 14.8441 19.3583 14.8441C19.0559 14.8441 18.5643 14.9567 18.1485 15.407C17.7326 15.8573 16.5606 16.9455 16.5606 19.1594C16.5606 21.3733 18.1862 23.5122 18.4131 23.8124C18.64 24.1126 21.6122 28.6559 26.1634 30.6043C27.2458 31.0677 28.0909 31.3444 28.7498 31.5518C29.8366 31.894 30.8256 31.8458 31.6074 31.73C32.4791 31.6009 34.2916 30.6419 34.6697 29.5912C35.0478 28.5404 35.0478 27.6399 34.9344 27.4523C34.8209 27.2647 34.5185 27.1521 34.0649 26.9269Z" fill="white"/>
<defs>
<linearGradient id="paint0_linear_11_13" x1="24.8919" y1="0.0542908" x2="24.8919" y2="48.0543" gradientUnits="userSpaceOnUse">
<stop stop-color="#61FD7D"/>
<stop offset="1" stop-color="#2BB826"/>
</linearGradient>
</defs>
</svg>
