<svg width="48" height="49" viewBox="0 0 48 49" fill="none" xmlns="http://www.w3.org/2000/svg">
<path d="M24 18.1023C22.8228 18.1023 21.672 18.4514 20.6932 19.1054C19.7144 19.7594 18.9516 20.689 18.5011 21.7766C18.0506 22.8641 17.9327 24.0609 18.1624 25.2155C18.392 26.37 18.9589 27.4306 19.7913 28.263C20.6237 29.0954 21.6842 29.6623 22.8388 29.8919C23.9934 30.1216 25.1901 30.0037 26.2777 29.5532C27.3653 29.1027 28.2949 28.3398 28.9489 27.361C29.6029 26.3822 29.952 25.2315 29.952 24.0543C29.952 23.2727 29.798 22.4987 29.4989 21.7766C29.1998 21.0544 28.7614 20.3983 28.2087 19.8456C27.656 19.2929 26.9999 18.8545 26.2777 18.5554C25.5556 18.2562 24.7816 18.1023 24 18.1023ZM47.832 12.2223C47.8194 10.3689 47.4781 8.53246 46.824 6.79829C46.3423 5.52931 45.5969 4.37692 44.6372 3.41714C43.6774 2.45736 42.525 1.71201 41.256 1.23029C39.5218 0.576204 37.6854 0.234917 35.832 0.222291C32.736 0.0542906 31.824 0.0542908 24 0.0542908C16.176 0.0542908 15.264 0.0542906 12.168 0.222291C10.3146 0.234917 8.47817 0.576204 6.744 1.23029C5.47502 1.71201 4.32263 2.45736 3.36284 3.41714C2.40306 4.37692 1.65772 5.52931 1.176 6.79829C0.521913 8.53246 0.180626 10.3689 0.168 12.2223C-1.60933e-07 15.3183 0 16.2303 0 24.0543C0 31.8783 -1.60933e-07 32.7903 0.168 35.8863C0.193833 37.7462 0.534658 39.5883 1.176 41.3343C1.65559 42.5975 2.40031 43.7432 3.36 44.6943C4.31566 45.6598 5.47053 46.4052 6.744 46.8783C8.47817 47.5324 10.3146 47.8737 12.168 47.8863C15.264 48.0543 16.176 48.0543 24 48.0543C31.824 48.0543 32.736 48.0543 35.832 47.8863C37.6854 47.8737 39.5218 47.5324 41.256 46.8783C42.5295 46.4052 43.6843 45.6598 44.64 44.6943C45.5997 43.7432 46.3444 42.5975 46.824 41.3343C47.4775 39.5916 47.8187 37.7474 47.832 35.8863C48 32.7903 48 31.8783 48 24.0543C48 16.2303 48 15.3183 47.832 12.2223ZM41.736 31.4223C41.659 32.9033 41.3429 34.3622 40.8 35.7423C40.3341 36.8935 39.6414 37.9393 38.7632 38.8175C37.8851 39.6957 36.8392 40.3884 35.688 40.8543C34.2948 41.3669 32.8278 41.6506 31.344 41.6943C29.448 41.6943 28.944 41.6943 24 41.6943C19.056 41.6943 18.552 41.6943 16.656 41.6943C15.1722 41.6506 13.7052 41.3669 12.312 40.8543C11.1218 40.412 10.0471 39.7064 9.168 38.7903C8.2984 37.9293 7.62683 36.8892 7.2 35.7423C6.68534 34.3506 6.40946 32.8819 6.384 31.3983C6.384 29.5023 6.384 28.9983 6.384 24.0543C6.384 19.1103 6.384 18.6063 6.384 16.7103C6.40946 15.2267 6.68534 13.758 7.2 12.3663C7.64228 11.1761 8.34786 10.1014 9.264 9.22229C10.1288 8.35739 11.1678 7.68652 12.312 7.25429C13.7052 6.74166 15.1722 6.45799 16.656 6.41429C18.552 6.41429 19.056 6.41429 24 6.41429C28.944 6.41429 29.448 6.41429 31.344 6.41429C32.8278 6.45799 34.2948 6.74166 35.688 7.25429C36.8782 7.69657 37.9529 8.40215 38.832 9.31829C39.7016 10.1793 40.3732 11.2194 40.8 12.3663C41.3126 13.7595 41.5963 15.2264 41.64 16.7103C41.64 18.6063 41.64 19.1103 41.64 24.0543C41.64 28.9983 41.808 29.5023 41.736 31.3983V31.4223ZM37.896 13.5663C37.6103 12.7911 37.1597 12.087 36.5755 11.5028C35.9913 10.9186 35.2872 10.468 34.512 10.1823C33.4475 9.81332 32.3264 9.63459 31.2 9.65429C29.328 9.65429 28.8 9.65429 24 9.65429C19.2 9.65429 18.672 9.65429 16.8 9.65429C15.6678 9.66536 14.5466 9.87661 13.488 10.2783C12.7246 10.5511 12.0281 10.9832 11.4446 11.546C10.8611 12.1087 10.4041 12.7893 10.104 13.5423C9.75546 14.6112 9.58519 15.7301 9.6 16.8543C9.6 18.7263 9.6 19.2543 9.6 24.0543C9.6 28.8543 9.6 29.3823 9.6 31.2543C9.62379 32.3852 9.83465 33.5043 10.224 34.5663C10.5098 35.3415 10.9603 36.0455 11.5445 36.6298C12.1287 37.214 12.8328 37.6645 13.608 37.9503C14.632 38.3269 15.7096 38.5375 16.8 38.5743C18.672 38.5743 19.2 38.5743 24 38.5743C28.8 38.5743 29.328 38.5743 31.2 38.5743C32.3322 38.5632 33.4534 38.352 34.512 37.9503C35.2872 37.6645 35.9913 37.214 36.5755 36.6298C37.1597 36.0455 37.6103 35.3415 37.896 34.5663C38.2977 33.5077 38.5089 32.3865 38.52 31.2543C38.52 29.3823 38.52 28.8543 38.52 24.0543C38.52 19.2543 38.52 18.7263 38.52 16.8543C38.5207 15.721 38.309 14.5976 37.896 13.5423V13.5663ZM24 33.2223C22.7972 33.2223 21.6062 32.985 20.4952 32.524C19.3842 32.0629 18.3751 31.3872 17.5257 30.5356C16.6763 29.684 16.0033 28.6731 15.5451 27.5609C15.087 26.4487 14.8528 25.2571 14.856 24.0543C14.856 22.24 15.3943 20.4665 16.4028 18.9583C17.4112 17.4502 18.8445 16.2751 20.5211 15.5819C22.1978 14.8887 24.0424 14.7085 25.8214 15.0642C27.6005 15.4199 29.234 16.2955 30.5152 17.5801C31.7965 18.8646 32.6677 20.5005 33.0188 22.2805C33.3698 24.0605 33.1848 25.9046 32.4872 27.5794C31.7896 29.2542 30.6108 30.6844 29.1 31.6889C27.5892 32.6934 25.8143 33.227 24 33.2223ZM33.6 16.6863C33.0695 16.6301 32.5785 16.3796 32.2216 15.983C31.8648 15.5864 31.6674 15.0718 31.6674 14.5383C31.6674 14.0048 31.8648 13.4902 32.2216 13.0936C32.5785 12.697 33.0695 12.4464 33.6 12.3903C34.1305 12.4464 34.6215 12.697 34.9784 13.0936C35.3352 13.4902 35.5326 14.0048 35.5326 14.5383C35.5326 15.0718 35.3352 15.5864 34.9784 15.983C34.6215 16.3796 34.1305 16.6301 33.6 16.6863Z" fill="#45848B"/>
</svg>
