<svg width="48" height="49" viewBox="0 0 48 49" fill="none" xmlns="http://www.w3.org/2000/svg">
<path d="M40.8951 6.99393C38.69 4.7674 36.0636 3.00227 33.169 1.80151C30.2745 0.600745 27.1698 -0.0116086 24.0362 0.000166651C10.9056 0.000166651 0.204461 10.6983 0.192434 23.8319C0.192434 28.0383 1.29291 32.1306 3.3706 35.7537L0 48.1086L12.6405 44.7951C16.1358 46.7021 20.0545 47.6999 24.0362 47.6966H24.0482C37.1818 47.6966 47.8799 36.9985 47.8919 23.8529C47.8946 20.72 47.2775 17.6176 46.0762 14.7242C44.8748 11.8308 43.116 9.2036 40.8951 6.99393ZM24.0362 43.6615C20.4857 43.6588 17.001 42.7035 13.9454 40.8953L13.2238 40.4623L5.7249 42.4288L7.72741 35.1133L7.25836 34.3586C5.2733 31.2025 4.22346 27.5483 4.23053 23.8198C4.23053 12.9173 13.1216 4.02323 24.0482 4.02323C26.6513 4.01856 29.2295 4.5292 31.6343 5.52569C34.0391 6.52219 36.2229 7.98484 38.0598 9.82932C39.9026 11.6669 41.3636 13.851 42.3585 16.2558C43.3535 18.6605 43.8627 21.2384 43.8568 23.8409C43.8448 34.7825 34.9538 43.6615 24.0362 43.6615ZM34.9057 28.8261C34.3133 28.5284 31.3877 27.0882 30.8375 26.8837C30.2903 26.6883 29.8904 26.5861 29.4995 27.1814C29.0996 27.7738 27.957 29.1238 27.6142 29.5117C27.2715 29.9116 26.9166 29.9567 26.3213 29.662C25.729 29.3613 23.8076 28.7359 21.5345 26.7003C19.7605 25.1218 18.5729 23.1674 18.2181 22.575C17.8753 21.9797 18.185 21.661 18.4826 21.3633C18.7442 21.0987 19.075 20.6657 19.3727 20.323C19.6733 19.9802 19.7726 19.7276 19.968 19.3307C20.1634 18.9278 20.0702 18.585 19.9229 18.2874C19.7726 17.9897 18.5849 15.0521 18.0827 13.8674C17.6017 12.6978 17.1116 12.8601 16.7447 12.8451C16.402 12.8241 16.0021 12.8241 15.6022 12.8241C15.3002 12.8317 15.0031 12.9017 14.7294 13.0295C14.4557 13.1573 14.2113 13.3402 14.0116 13.5667C13.4643 14.1621 11.9339 15.6023 11.9339 18.5399C11.9339 21.4776 14.0687 24.3009 14.3694 24.7008C14.664 25.1007 18.5608 31.1113 24.5413 33.6971C25.9545 34.3135 27.067 34.6773 27.9359 34.9539C29.3642 35.411 30.6541 35.3418 31.6824 35.1945C32.825 35.0201 35.2033 33.7512 35.7055 32.3591C36.1986 30.9639 36.1986 29.7733 36.0482 29.5237C35.9009 29.2711 35.501 29.1238 34.9057 28.8261Z" fill="#45848B"/>
</svg>
