<svg width="48" height="49" viewBox="0 0 48 49" fill="none" xmlns="http://www.w3.org/2000/svg">
<path d="M35.4732 0.0542908H12.4683C5.61951 0.0542908 0 5.49582 0 12.2548V35.8538C0 42.5555 5.56097 48.0543 12.4683 48.0543H35.5317C42.3805 48.0543 48 42.6128 48 35.8538V12.1975C47.9415 5.49582 42.3805 0.0542908 35.4732 0.0542908ZM39.6293 39.9206H30.6146C30.5561 39.9206 30.4976 39.9206 30.4976 39.8634L22.0683 27.892H22.0098C18.6146 31.7297 15.278 35.5101 12 39.2333C11.8244 39.4624 11.5902 39.6342 11.4146 39.8061C11.3561 39.8634 11.2976 39.8634 11.239 39.8634H8.78049C8.72195 39.8634 8.66341 39.8634 8.72195 39.8061L20.722 26.1736C20.7805 26.1163 20.7805 26.0591 20.722 26.0018L8.78049 8.98985V8.93257H17.8537C17.9122 8.93257 17.9122 8.93257 17.9707 8.98985L25.9317 20.2739C25.9317 20.2739 25.9317 20.2739 25.9902 20.2739L35.8829 8.98985C35.9415 8.93257 36 8.93257 36.0585 8.93257H38.5171C38.6341 8.93257 38.6341 8.98985 38.5756 9.04713L27.2195 21.935C27.161 21.9922 27.161 22.0495 27.2195 22.1068L39.6878 39.8634C39.6878 39.8634 39.6878 39.9206 39.6293 39.9206Z" fill="#45848B"/>
<path d="M16.8 10.9946H12.878C12.8195 10.9946 12.8195 11.0519 12.8195 11.1092L31.6683 37.8586C31.6683 37.8586 31.6683 37.8586 31.7268 37.8586H35.5902C35.6488 37.8586 35.6488 37.8013 35.6488 37.744L16.8 10.9946Z" fill="#45848B"/>
</svg>
