<svg width="48" height="49" viewBox="0 0 48 49" fill="none" xmlns="http://www.w3.org/2000/svg">
<path d="M39 0.0542908C41.4792 0.0542908 43.599 0.934499 45.3594 2.69492C47.1198 4.45533 48 6.57512 48 9.05429V39.0543C48 41.5335 47.1198 43.6532 45.3594 45.4137C43.599 47.1741 41.4792 48.0543 39 48.0543H33.125V29.4605H39.3438L40.2812 22.2105H33.125V17.5855C33.125 16.4189 33.3698 15.5439 33.8594 14.9605C34.349 14.3772 35.3021 14.0855 36.7188 14.0855L40.5312 14.0543V7.58554C39.2188 7.39804 37.3646 7.30429 34.9688 7.30429C32.1354 7.30429 29.8698 8.13762 28.1719 9.80429C26.474 11.471 25.625 13.8251 25.625 16.8668V22.2105H19.375V29.4605H25.625V48.0543H9C6.52083 48.0543 4.40104 47.1741 2.64062 45.4137C0.880208 43.6532 0 41.5335 0 39.0543V9.05429C0 6.57512 0.880208 4.45533 2.64062 2.69492C4.40104 0.934499 6.52083 0.0542908 9 0.0542908H39Z" fill="#45848B"/>
</svg>
